<svg version="1.1" preserveAspectRatio="none" xmlns="http://www.w3.org/2000/svg" width="500" height="500" viewBox="0 0 500 500"><rect width="100%" height="100%" fill="#0C0C0C" fill-opacity="1"/><svg viewBox="356.0455 433.8763 333.3941 100" width="333" height="99.88179154940055" x="83.5px" y="200.0591px" xmlns="http://www.w3.org/2000/svg" xmlns:xlink="http://www.w3.org/1999/xlink" preserveAspectRatio="none"><defs></defs><style>.companyName {fill:#EFEFEF;fill-opacity:1;}.icon3-str {stroke:#AAAAAA;stroke-opacity:1;}</style><g opacity="1" transform="rotate(0 356.0455 433.8763)">
<svg width="333.3941" height="100" x="356.0455" y="433.8763" version="1.1" preserveAspectRatio="none" viewBox="1.1909 -29.5508 103.0782 30.918">
  <g transform="matrix(1 0 0 1 0 0)" class="companyName"><path id="id-D6z1nYkh4" d="M10.08-15L10.08-15Q10.08-19.80 10.27-25.92L10.27-25.92Q10.31-27.40 16.80-27.79L16.80-27.79Q16.91-28.16 16.80-28.71L16.80-28.71Q11.68-28.55 8.81-28.55L8.81-28.55Q6.41-28.55 1.99-28.71L1.99-28.71Q1.84-28.36 1.99-27.79L1.99-27.79Q6.48-27.36 6.52-25.92L6.52-25.92Q6.72-21.33 6.72-15L6.72-15Q6.72-8.81 6.48-2.68L6.48-2.68Q6.45-1.23 1.95-0.80L1.95-0.80Q1.84-0.31 1.95 0.12L1.95 0.12Q5.72 0 19.47 0L19.47 0Q24.16 0 26.50-1.76Q28.85-3.52 30.88-7.68L30.88-7.68Q30.72-8.01 30.20-8.20L30.20-8.20Q29.43-6.80 28.52-5.70Q27.60-4.61 26.09-3.51Q24.59-2.40 22.35-1.80Q20.12-1.19 17.29-1.19L17.29-1.19L10.23-1.19Q10.08-8.05 10.08-15ZM13.05-13.55L13.05-13.55Q13.05-8.20 13.20-1.99L13.20-1.99L17.25-1.99Q25.92-1.99 29.84-9.20L29.84-9.20Q31.48-8.59 31.91-7.68L31.91-7.68Q29.12-3.05 28.63 0.80L28.63 0.80L12.87 0.80Q5.16 0.80 1.41 0.92L1.41 0.92Q1.00-0.35 1.37-1.56L1.37-1.56Q5.64-1.99 5.68-2.71L5.68-2.71Q5.92-8.85 5.92-15L5.92-15Q5.92-21.29 5.72-25.88L5.72-25.88Q5.68-26.60 1.37-27.03L1.37-27.03Q1.04-28.32 1.45-29.55L1.45-29.55Q4.84-29.36 10.20-29.36L10.20-29.36Q11.00-29.36 13.40-29.39Q15.80-29.43 17.60-29.43L17.60-29.43Q17.97-28.32 17.64-27.03L17.64-27.03Q13.32-26.60 13.28-25.88L13.28-25.88Q13.05-21.00 13.05-13.55Z M44.32-16.48L44.32-16.48Q45.88-16.48 46.58-15.48Q47.29-14.47 47.29-12.97L47.29-12.97Q47.29-12.40 47.09-11.68L47.09-11.68L39.47-11.68Q40.08-14.12 41.44-15.30Q42.79-16.48 44.32-16.48ZM39.28-10.35L39.28-10.35L49.92-10.35Q50.23-11.33 50.23-12.36L50.23-12.36Q50.23-14.65 48.94-16.20Q47.64-17.75 44.80-17.75L44.80-17.75Q41.11-17.75 38.59-15.08Q36.07-12.40 36.07-8.28L36.07-8.28Q36.07-3.89 38.48-1.66Q40.88 0.57 44.12 0.57L44.12 0.57Q46.52 0.57 48.58-0.73Q50.64-2.03 51.60-4.65L51.60-4.65Q51.33-4.96 50.84-5.08L50.84-5.08Q50.76-4.96 50.38-4.44Q50-3.93 49.82-3.70Q49.65-3.48 49.19-3.06Q48.73-2.64 48.31-2.44Q47.89-2.25 47.25-2.06Q46.60-1.88 45.84-1.88L45.84-1.88Q42.83-1.88 41.05-3.66Q39.28-5.45 39.20-8.48L39.20-8.48Q39.20-9.16 39.28-10.35ZM50.53-6.00L50.53-6.00Q51.76-5.72 52.52-4.77L52.52-4.77Q51.41-1.72 49.08-0.18Q46.76 1.37 44.12 1.37L44.12 1.37Q40.53 1.37 37.90-1.05Q35.27-3.48 35.27-8.28L35.27-8.28Q35.27-12.64 37.96-15.60Q40.64-18.55 45.57-18.55L45.57-18.55Q53.01-18.55 53.01-12.36L53.01-12.36Q53.01-11.15 52.44-9.55L52.44-9.55L41.95-9.55L41.95-8.28Q42.05-5.92 43.24-4.44Q44.43-2.97 46.52-2.71L46.52-2.71Q47.75-2.83 48.55-3.55Q49.36-4.28 50.53-6.00ZM46.48-12.97L46.48-12.97Q46.48-15.12 45.04-15.57L45.04-15.57Q43.32-15.04 42.48-12.48L42.48-12.48L46.45-12.48Q46.45-12.56 46.46-12.71Q46.48-12.87 46.48-12.97Z M66.07-16.48L66.07-16.48Q68.09-16.48 69.27-14.56Q70.45-12.64 70.45-8.59L70.45-8.59Q70.45-4.55 69.27-2.64Q68.09-0.72 66.07-0.72L66.07-0.72Q64.96-0.72 64.05-1.19Q63.14-1.66 62.51-2.64Q61.88-3.61 61.52-5.09Q61.17-6.56 61.17-8.59L61.17-8.59Q61.17-10.61 61.52-12.10Q61.88-13.59 62.51-14.56Q63.14-15.53 64.05-16.01Q64.96-16.48 66.07-16.48ZM66.07 0.57L66.07 0.57Q67.89 0.57 69.34-0.12Q70.78-0.80 71.81-2.02Q72.83-3.24 73.38-4.92Q73.93-6.60 73.93-8.59L73.93-8.59Q73.93-10.59 73.38-12.27Q72.83-13.95 71.81-15.17Q70.78-16.39 69.34-17.07Q67.89-17.75 66.07-17.75L66.07-17.75Q64.14-17.75 62.58-17.07Q61.02-16.39 59.93-15.18Q58.85-13.96 58.26-12.28Q57.68-10.59 57.68-8.59L57.68-8.59Q57.68-6.58 58.26-4.90Q58.85-3.22 59.93-2.00Q61.02-0.78 62.58-0.11Q64.14 0.57 66.07 0.57ZM66.76-18.55L66.76-18.55Q69.12-18.55 70.97-17.83Q72.81-17.11 74.08-15.79Q75.35-14.47 76.02-12.64Q76.68-10.80 76.68-8.59L76.68-8.59Q76.68-6.41 76.02-4.57Q75.35-2.73 74.09-1.42Q72.83-0.10 70.98 0.63Q69.12 1.37 66.76 1.37L66.76 1.37Q64.41 1.37 62.57 0.63Q60.72-0.10 59.46-1.42Q58.20-2.73 57.54-4.56Q56.88-6.39 56.88-8.59L56.88-8.59Q56.88-10.80 57.54-12.64Q58.20-14.47 59.47-15.79Q60.74-17.11 62.58-17.83Q64.41-18.55 66.76-18.55ZM63.93-8.59L63.93-8.59Q63.93-2.29 66.76-1.60L66.76-1.60Q69.65-2.29 69.65-8.59L69.65-8.59Q69.65-14.84 66.76-15.61L66.76-15.61Q63.93-14.84 63.93-8.59Z M93.18-0.90L93.18-0.90Q92.95-0.45 93.18 0.06L93.18 0.06Q98.26-0.06 103.36 0.06L103.36 0.06Q103.63-0.41 103.36-0.90L103.36-0.90Q98.59-1.13 98.55-2.77L98.55-2.77L98.36-12.60Q98.26-15.27 97.49-16.51Q96.72-17.75 94.79-17.75L94.79-17.75Q91.54-17.75 87.07-13.28L87.07-13.28L87.07-17.17Q86.91-17.48 86.39-17.68L86.39-17.68Q83.67-16.41 80.74-16.07L80.74-16.07Q80.63-15.61 80.74-15.16L80.74-15.16Q82.99-15.04 84.06-14.36L84.06-14.36Q84.28-8.52 84.06-2.77L84.06-2.77Q84.02-1.33 80.70-0.90L80.70-0.90Q80.47-0.45 80.70 0.06L80.70 0.06Q85.78-0.14 90.92 0.06L90.92 0.06Q91.15-0.45 90.92-0.90L90.92-0.90Q87.27-1.29 87.23-2.77L87.23-2.77Q87.07-6.84 87.07-12.03L87.07-12.03Q91.00-15.49 93.22-15.49L93.22-15.49Q95.35-15.49 95.35-11.95L95.35-11.95L95.31-2.77Q95.31-1.82 94.73-1.44Q94.14-1.05 93.18-0.90ZM92.56 0.74L92.56 0.74Q92.07-0.41 92.56-1.62L92.56-1.62Q93.18-1.62 93.85-1.96Q94.51-2.30 94.51-2.77L94.51-2.77L94.55-11.95Q94.55-14.08 93.71-14.55L93.71-14.55Q92.27-14.20 89.82-12.44L89.82-12.44Q89.82-7.07 89.98-2.81L89.98-2.81Q90.08-1.78 91.54-1.62L91.54-1.62Q92.03-0.41 91.54 0.74L91.54 0.74Q85.82 0.55 80.04 0.74L80.04 0.74Q79.55-0.41 80.04-1.62L80.04-1.62Q83.22-2.05 83.26-2.81L83.26-2.81Q83.48-8.32 83.26-13.89L83.26-13.89Q81.95-14.28 80.04-14.39L80.04-14.39Q79.59-15.57 80.04-16.88L80.04-16.88Q82.99-17.03 86.68-18.63L86.68-18.63Q88.79-18.48 89.82-17.36L89.82-17.36L89.82-16.72Q92.60-18.55 96.19-18.55L96.19-18.55Q98.83-18.55 99.95-17.12Q101.07-15.68 101.11-12.60L101.11-12.60Q101.19-4.84 101.31-2.77L101.31-2.77Q101.35-1.97 104.06-1.62L104.06-1.62Q104.51-0.33 103.98 0.74L103.98 0.74Q98.26 0.63 92.56 0.74Z"/></g>
</svg>
</g></svg></svg>